<svg width="451" height="71" viewBox="0 0 451 71" fill="none" xmlns="http://www.w3.org/2000/svg">
<rect width="450" height="70" transform="translate(0.671509 0.157471)" fill="white"/>
<path d="M162.9 0.157471C164.514 0.157471 166.128 0.157471 167.791 0.157471C168.06 9.53895 168.329 18.9204 168.606 28.5862C170.22 26.6846 170.22 26.6846 171.867 24.7445C173.526 23.5559 173.526 23.5559 175.179 22.6315C176 22.1621 176 22.1621 176.838 21.6831C182.305 18.9321 190.471 19.3538 196.406 20.7137C203.692 23.3588 208.47 27.7545 211.66 34.4448C213.876 40.545 213.327 47.9527 210.998 53.9416C207.134 60.6248 202.476 64.7916 194.744 67.2075C187.846 68.7666 181.545 68.5205 175.319 65.1936C172.273 63.0803 170.113 60.5896 167.791 57.7833C167.522 60.8259 167.253 63.8686 166.976 67.0034C165.631 67.0034 164.286 67.0034 162.9 67.0034C162.9 44.9442 162.9 22.8851 162.9 0.157471Z" fill="#FDFCFD"/>
<path d="M0.671509 6.0238C2.28564 6.0238 3.89977 6.0238 5.56281 6.0238C5.82408 6.46257 6.08536 6.90134 6.35454 7.3534C11.5421 16.0562 16.7743 24.7315 22.1219 33.348C22.5993 34.1177 23.0766 34.8874 23.5684 35.6805C25.2811 38.4414 26.994 41.2023 28.7077 43.9627C29.6581 45.4967 30.6039 47.0332 31.5479 48.5709C32.3013 49.7921 32.3013 49.7921 33.07 51.038C34.0954 52.8928 34.0954 52.8928 34.0954 54.4295C36.3745 52.5134 37.7089 50.394 39.2033 47.8956C39.7216 47.034 40.2399 46.1724 40.774 45.2848C41.0474 44.8263 41.3208 44.3679 41.6024 43.8956C42.4601 42.4576 43.3224 41.0222 44.1861 39.5875C45.385 37.596 46.5824 35.6037 47.779 33.611C50.6005 28.9173 53.4535 24.2407 56.3101 19.5659C56.8148 18.7363 57.3194 17.9068 57.8394 17.0521C59.1511 14.9053 60.4806 12.7693 61.8128 10.6339C62.117 10.1136 62.4213 9.59341 62.7347 9.05741C63.5324 7.77059 63.5324 7.77059 65.0737 6.0238C66.4188 6.0238 67.7639 6.0238 69.1498 6.0238C69.1498 27.0687 69.1498 48.1137 69.1498 69.7964C67.5356 69.7964 65.9215 69.7964 64.2585 69.7964C63.9894 52.5547 63.7204 35.3131 63.4432 17.549C59.4079 24.1414 55.3726 30.7338 51.215 37.5259C49.1296 40.9056 47.0434 44.2844 44.948 47.6585C42.1242 52.2092 39.3054 56.7614 36.5411 61.3446C35.0615 61.1767 35.0615 61.1767 33.2802 60.5762C32.0434 59.0889 32.0434 59.0889 30.8664 57.1157C30.4202 56.3803 29.9741 55.645 29.5144 54.8874C29.0421 54.0865 28.5698 53.2857 28.0832 52.4606C27.0677 50.7777 26.0518 49.0949 25.0357 47.4123C24.5148 46.5425 23.994 45.6726 23.4574 44.7764C20.9169 40.5582 18.3068 36.3787 15.7021 32.1955C14.7828 30.7165 13.8646 29.2368 12.9475 27.7565C12.5634 27.1376 12.1792 26.5186 11.7834 25.8809C9.94877 22.865 8.16933 19.8196 6.37803 16.7806C6.10901 34.2758 5.83999 51.771 5.56281 69.7964C3.94868 69.7964 2.33455 69.7964 0.671509 69.7964C0.671509 48.7514 0.671509 27.7065 0.671509 6.0238Z" fill="#4818C2"/>
<path d="M162.9 2.18201C164.514 2.18201 166.128 2.18201 167.791 2.18201C168.06 11.5635 168.329 20.945 168.606 30.6107C170.22 28.7091 170.22 28.7091 171.867 26.769C173.526 25.5805 173.526 25.5805 175.179 24.6561C176 24.1866 176 24.1866 176.838 23.7076C182.305 20.9567 190.471 21.3784 196.406 22.7382C203.692 25.3833 208.47 29.779 211.66 36.4694C213.876 42.5696 213.327 49.9772 210.998 55.9661C207.134 62.6493 202.476 66.8162 194.744 69.232C187.846 70.7912 181.545 70.545 175.319 67.2181C172.273 65.1048 170.113 62.6141 167.791 59.8078C167.522 62.8505 167.253 65.8931 166.976 69.0279C165.631 69.0279 164.286 69.0279 162.9 69.0279C162.9 46.9688 162.9 24.9096 162.9 2.18201ZM172.596 31.193C168.581 35.6719 167.191 40.0803 167.282 45.8816C167.289 46.487 167.296 47.0924 167.304 47.7161C167.522 52.9122 168.772 56.7555 172.682 60.5762C177.982 64.7602 182.408 66.2468 189.264 66.1707C194.922 65.6068 199.748 62.8128 203.661 59.0395C207.541 53.062 208.462 47.5742 207.737 40.5992C205.964 34.9373 202.321 30.7933 197.139 27.5374C188.811 23.6774 179.366 25.7611 172.596 31.193Z" fill="#6221A0"/>
<path d="M121.537 28.804C125.582 30.5033 128.658 32.8037 130.291 36.7576C131.061 41.1325 131.134 44.964 128.836 48.919C127.334 50.7504 126.508 51.2886 124.099 51.8438C121.503 52.0269 118.983 52.0139 116.382 51.9324C115.05 51.9442 115.05 51.9442 113.692 51.9564C107.266 51.8669 107.266 51.8669 104.462 49.5433C102.227 45.3166 102.065 41.409 102.574 36.7576C106.431 29.352 113.204 26.5521 121.537 28.804Z" fill="#5017AE"/>
<path d="M329.204 22.1589C331.405 21.9068 331.405 21.9068 334.095 22.1589C336.098 23.8517 336.098 23.8517 338.019 26.1927C338.533 26.8075 338.533 26.8075 339.058 27.4347C340.14 28.737 341.197 30.0545 342.248 31.3791C342.597 31.8177 342.946 32.2563 343.306 32.7083C344.921 34.7402 346.524 36.7773 348.107 38.8314C349.417 40.6564 349.417 40.6564 351.215 41.3675C351.551 40.6952 351.551 40.6952 351.894 40.0092C352.817 38.3458 353.831 36.9354 355.03 35.4399C355.451 34.9125 355.873 34.3851 356.307 33.8417C356.745 33.2984 357.183 32.7551 357.635 32.1954C358.067 31.6551 358.499 31.1149 358.944 30.5582C359.785 29.5089 360.63 28.4626 361.48 27.4197C362.469 26.1979 363.427 24.9546 364.38 23.7076C365.889 22.1589 365.889 22.1589 368.946 21.9188C369.82 21.9981 370.695 22.0773 371.595 22.1589C368.311 27.1419 364.536 31.6107 360.52 36.0762C358.115 38.7864 355.857 41.5793 353.661 44.4409C355.04 47.4527 357.156 49.8747 359.316 52.4125C360.119 53.3659 360.921 54.3193 361.724 55.2728C362.569 56.2722 363.414 57.2717 364.259 58.2711C365.943 60.2695 367.624 62.271 369.303 64.2738C369.891 64.9704 369.891 64.9704 370.492 65.6811C373.226 68.9411 373.226 68.9411 373.226 69.7963C368.062 70.219 368.062 70.219 365.701 68.3796C365.175 67.7061 364.648 67.0326 364.106 66.3387C363.498 65.581 362.891 64.8233 362.265 64.0427C361.938 63.6182 361.611 63.1936 361.274 62.7562C360.049 61.1716 358.796 59.6085 357.539 58.046C355.142 55.0599 352.766 52.059 350.4 49.051C349.223 50.3433 348.052 51.6411 346.884 52.9407C346.52 53.3441 346.156 53.7474 345.781 54.163C343.69 56.5176 341.744 58.9106 339.91 61.4495C339.526 61.9749 339.142 62.5003 338.746 63.0416C338 64.0723 337.27 65.1134 336.558 66.1648C335.513 67.5993 335.513 67.5993 333.28 69.7963C330.156 70.1204 330.156 70.1204 327.574 69.7963C328.959 66.7621 331.105 64.3306 333.28 61.7767C333.672 61.3083 334.064 60.8398 334.467 60.3572C336.491 57.9371 338.54 55.5418 340.633 53.1748C341.392 52.2965 342.151 51.4181 342.91 50.5396C343.277 50.1376 343.645 49.7355 344.023 49.3213C345.163 48.0505 345.163 48.0505 346.324 45.9776C345.704 42.2877 342.527 39.3794 340.057 36.5654C339.174 35.5421 338.292 34.5187 337.41 33.495C336.983 33.0019 336.555 32.5088 336.115 32.0007C334.544 30.1874 332.988 28.3641 331.446 26.5289C330.784 25.7489 330.784 25.7489 330.109 24.9532C329.204 23.6956 329.204 23.6956 329.204 22.1589Z" fill="#97335C"/>
<path d="M268.878 2.18201C270.492 2.18201 272.106 2.18201 273.769 2.18201C273.769 24.4947 273.769 46.8074 273.769 69.7963C272.155 69.7963 270.541 69.7963 268.878 69.7963C268.878 47.4836 268.878 25.1709 268.878 2.18201Z" fill="#782479"/>
<path d="M450.671 21.3906C450.671 22.912 450.671 24.4333 450.671 26.0007C450.149 26.076 449.627 26.1513 449.089 26.2288C443.08 27.2079 438.627 28.2073 434.928 33.1079C432.302 38.0692 431.676 43.1651 431.584 48.6188C431.568 49.207 431.552 49.7952 431.536 50.4013C431.488 52.2561 431.45 54.111 431.412 55.9661C431.381 57.2337 431.349 58.5013 431.316 59.7688C431.239 62.8551 431.17 65.9414 431.106 69.028C429.761 69.028 428.416 69.028 427.03 69.028C427.03 53.5612 427.03 38.0944 427.03 22.159C428.375 22.159 429.72 22.159 431.106 22.159C431.375 24.9481 431.644 27.7372 431.921 30.6108C432.93 29.3747 432.93 29.3747 433.959 28.1137C438.322 23.3006 444.027 21.2167 450.671 21.3906Z" fill="#AE3638"/>
<path d="M393.606 22.1591C395.22 22.1591 396.834 22.1591 398.498 22.1591C398.498 37.8794 398.498 53.5997 398.498 69.7964C396.883 69.7964 395.269 69.7964 393.606 69.7964C393.606 54.0761 393.606 38.3558 393.606 22.1591Z" fill="#A3364B"/>
<path d="M302.302 22.1591C303.916 22.1591 305.53 22.1591 307.193 22.1591C307.193 37.8794 307.193 53.5997 307.193 69.7964C305.579 69.7964 303.965 69.7964 302.302 69.7964C302.302 54.0761 302.302 38.3558 302.302 22.1591Z" fill="#892F6C"/>
<path d="M235.454 22.1591C237.068 22.1591 238.682 22.1591 240.345 22.1591C240.345 37.8794 240.345 53.5997 240.345 69.7964C238.731 69.7964 237.117 69.7964 235.454 69.7964C235.454 54.0761 235.454 38.3558 235.454 22.1591Z" fill="#70278F"/>
<path d="M105.835 50.5875C112.291 50.8411 118.748 51.0946 125.4 51.3559C125.4 52.6236 125.4 53.8914 125.4 55.1976C124.593 55.1976 123.786 55.1976 122.954 55.1976C122.954 55.7047 122.954 56.2118 122.954 56.7343C123.492 56.7343 124.03 56.7343 124.585 56.7343C124.585 57.4949 124.585 58.2556 124.585 59.0393C118.83 58.4969 113.162 57.67 107.465 56.7343C107.465 55.4665 107.465 54.1987 107.465 52.8926C106.927 52.639 106.389 52.3855 105.835 52.1242C105.835 51.6171 105.835 51.11 105.835 50.5875Z" fill="#E3DAF2"/>
<path d="M107.465 58.2711C113.256 59.0532 118.939 59.8839 124.585 61.3445C124.585 62.1052 124.585 62.8658 124.585 63.6495C118.935 63.6495 113.286 63.6495 107.465 63.6495C107.465 61.8747 107.465 60.0998 107.465 58.2711Z" fill="#5923B2"/>
<path d="M236.27 2.95032C238.957 3.20365 240.038 3.42875 241.976 5.25535C241.67 7.65643 241.67 7.65643 241.161 9.86541C236.731 10.8861 236.731 10.8861 234.69 9.76937C233.824 8.32873 233.824 8.32873 233.977 6.35984C234.639 4.48701 234.639 4.48701 236.27 2.95032Z" fill="#763094"/>
<path d="M396.562 3.14234C398.498 3.7186 398.498 3.7186 399.313 4.48695C399.466 6.74396 399.466 6.74396 399.313 9.09701C398.775 9.60412 398.237 10.1112 397.683 10.6337C395.135 10.3456 395.135 10.3456 392.791 9.86535C391.708 5.68986 391.708 5.68986 392.893 3.76662C394.422 2.95026 394.422 2.95026 396.562 3.14234Z" fill="#A53B50"/>
<path d="M304.799 3.57471C307.193 3.71877 307.193 3.71877 308.008 4.48712C308.161 6.74413 308.161 6.74413 308.008 9.09718C307.47 9.60429 306.932 10.1114 306.378 10.6339C303.83 10.3457 303.83 10.3457 301.487 9.86552C300.977 7.65654 300.977 7.65654 300.672 5.25546C302.302 3.71877 302.302 3.71877 304.799 3.57471Z" fill="#892E6B"/>
<path d="M109.911 65.9546C113.946 65.9546 117.981 65.9546 122.139 65.9546C120.509 69.028 120.509 69.028 118.878 69.7963C116.127 70.0844 116.127 70.0844 113.172 69.7963C112.096 68.5285 111.019 67.2608 109.911 65.9546Z" fill="#5D28B4"/>
<path d="M108.28 63.6495C113.661 63.6495 119.041 63.6495 124.585 63.6495C124.585 64.1566 124.585 64.6638 124.585 65.1862C124.047 65.1862 123.509 65.1862 122.954 65.1862C122.685 65.9469 122.416 66.7075 122.139 67.4913C122.139 66.9842 122.139 66.477 122.139 65.9546C121.275 65.9635 120.411 65.9724 119.521 65.9816C118.39 65.9888 117.258 65.9958 116.127 66.0026C115.557 66.009 114.988 66.0155 114.401 66.0221C110.095 66.0416 110.095 66.0416 108.28 65.1862C108.28 64.6791 108.28 64.172 108.28 63.6495Z" fill="#DDD1EF"/>
<path d="M107.465 54.4296C113.248 54.8789 118.891 55.6838 124.585 56.7346C124.585 57.4953 124.585 58.2559 124.585 59.0396C118.83 58.4973 113.162 57.6703 107.465 56.7346C107.465 55.9739 107.465 55.2133 107.465 54.4296Z" fill="#6C3CBB"/>
<path d="M108.28 56.7344C113.863 57.1081 119.147 57.7793 124.585 59.0394C124.854 58.5323 125.123 58.0252 125.4 57.5027C125.4 58.2634 125.4 59.024 125.4 59.8078C120.047 60.6215 115.085 60.8465 109.911 59.0394C109.373 58.2787 108.835 57.5181 108.28 56.7344Z" fill="#E0D7F1"/>
<path d="M136.813 29.8424C136.813 30.8566 136.813 31.8708 136.813 32.9158C134.444 33.8813 132.903 34.4525 130.291 34.4525C130.291 33.6918 130.291 32.9312 130.291 32.1474C134.979 29.8424 134.979 29.8424 136.813 29.8424Z" fill="#8158C5"/>
<path d="M132.737 41.3676C134.889 41.3676 137.041 41.3676 139.259 41.3676C139.259 42.1282 139.259 42.8889 139.259 43.6726C137.106 43.6726 134.954 43.6726 132.737 43.6726C132.737 42.9119 132.737 42.1513 132.737 41.3676Z" fill="#794DC1"/>
<path d="M93.6062 41.3676C95.7584 41.3676 97.9105 41.3676 100.128 41.3676C100.128 42.1282 100.128 42.8889 100.128 43.6726C97.9758 43.6726 95.8236 43.6726 93.6062 43.6726C93.6062 42.9119 93.6062 42.1513 93.6062 41.3676Z" fill="#784CC0"/>
<path d="M106.65 22.1591C108.229 22.6393 108.229 22.6393 109.911 23.6957C110.522 26.0968 110.522 26.0968 110.726 28.3058C109.146 27.8256 109.146 27.8256 107.465 26.7691C106.854 24.368 106.854 24.368 106.65 22.1591Z" fill="#784CC1"/>
<path d="M123.769 22.1591C124.576 22.1591 125.383 22.1591 126.215 22.1591C125.703 24.4094 124.922 26.2781 123.769 28.3058C123.231 28.3058 122.693 28.3058 122.139 28.3058C122.852 23.8878 122.852 23.8878 123.769 22.1591Z" fill="#7447BF"/>
<path d="M118.063 53.661C120.484 53.661 122.905 53.661 125.4 53.661C125.4 54.1681 125.4 54.6752 125.4 55.1977C124.593 55.1977 123.786 55.1977 122.954 55.1977C122.954 55.7048 122.954 56.2119 122.954 56.7344C121.426 56.4943 121.426 56.4943 119.693 55.966C119.155 55.2054 118.617 54.4447 118.063 53.661Z" fill="#B49CDC"/>
<path d="M96.052 30.6107C98.8031 31.0312 100.195 31.4212 102.574 32.9158C102.574 33.4229 102.574 33.93 102.574 34.4524C99.8227 34.032 98.4305 33.6419 96.052 32.1474C96.052 31.6403 96.052 31.1332 96.052 30.6107Z" fill="#7346BE"/>
<path d="M109.911 29.8424C108.62 33.1265 106.238 34.6563 103.389 36.7575C104.457 33.7378 106.038 29.8424 109.911 29.8424Z" fill="#6735B9"/>
</svg>
