<?xml version="1.0" encoding="UTF-8"?>
<svg version="1.1" xmlns="http://www.w3.org/2000/svg" width="604" height="604">
<path d="M0 0 C1.60343262 0.26611084 1.60343262 0.26611084 3.23925781 0.53759766 C50.12071072 8.41801297 93.8344181 27.82457371 132 56 C132.98371582 56.72485596 132.98371582 56.72485596 133.98730469 57.46435547 C143.6223439 64.63337434 152.3902109 72.64092061 161 81 C161.71687988 81.69496582 162.43375977 82.38993164 163.17236328 83.10595703 C171.64534966 91.35708909 179.80464497 99.59603214 187 109 C188.15628906 110.44826172 188.15628906 110.44826172 189.3359375 111.92578125 C204.0058457 130.50612239 215.78156429 150.69312956 226 172 C226.55042969 173.12277344 227.10085938 174.24554688 227.66796875 175.40234375 C238.63975432 198.98777353 245.69228526 224.42341856 250 250 C250.17499023 250.95986816 250.34998047 251.91973633 250.53027344 252.90869141 C255.93394297 283.22809263 255.49666876 317.73514789 250 348 C249.82259277 349.06895508 249.64518555 350.13791016 249.46240234 351.23925781 C241.58198703 398.12071072 222.17542629 441.8344181 194 480 C193.5167627 480.65581055 193.03352539 481.31162109 192.53564453 481.98730469 C185.36662566 491.6223439 177.35907939 500.3902109 169 509 C168.30503418 509.71687988 167.61006836 510.43375977 166.89404297 511.17236328 C158.64291091 519.64534966 150.40396786 527.80464497 141 535 C139.55173828 536.15628906 139.55173828 536.15628906 138.07421875 537.3359375 C119.49387761 552.0058457 99.30687044 563.78156429 78 574 C76.87722656 574.55042969 75.75445312 575.10085938 74.59765625 575.66796875 C51.01222647 586.63975432 25.57658144 593.69228526 0 598 C-0.95986816 598.17499023 -1.91973633 598.34998047 -2.90869141 598.53027344 C-33.22809263 603.93394297 -67.73514789 603.49666876 -98 598 C-99.06895508 597.82259277 -100.13791016 597.64518555 -101.23925781 597.46240234 C-148.12071072 589.58198703 -191.8344181 570.17542629 -230 542 C-230.65581055 541.5167627 -231.31162109 541.03352539 -231.98730469 540.53564453 C-241.6223439 533.36662566 -250.3902109 525.35907939 -259 517 C-260.07531982 515.95755127 -260.07531982 515.95755127 -261.17236328 514.89404297 C-269.64534966 506.64291091 -277.80464497 498.40396786 -285 489 C-285.77085937 488.03449219 -286.54171875 487.06898438 -287.3359375 486.07421875 C-302.0058457 467.49387761 -313.78156429 447.30687044 -324 426 C-324.55042969 424.87722656 -325.10085938 423.75445312 -325.66796875 422.59765625 C-336.63975432 399.01222647 -343.69228526 373.57658144 -348 348 C-348.17499023 347.04013184 -348.34998047 346.08026367 -348.53027344 345.09130859 C-353.93394297 314.77190737 -353.49666876 280.26485211 -348 250 C-347.82259277 248.93104492 -347.64518555 247.86208984 -347.46240234 246.76074219 C-339.58198703 199.87928928 -320.17542629 156.1655819 -292 118 C-291.5167627 117.34418945 -291.03352539 116.68837891 -290.53564453 116.01269531 C-283.36662566 106.3776561 -275.35907939 97.6097891 -267 89 C-266.30503418 88.28312012 -265.61006836 87.56624023 -264.89404297 86.82763672 C-256.64291091 78.35465034 -248.40396786 70.19535503 -239 63 C-238.03449219 62.22914062 -237.06898438 61.45828125 -236.07421875 60.6640625 C-217.49387761 45.9941543 -197.30687044 34.21843571 -176 24 C-174.31583984 23.17435547 -174.31583984 23.17435547 -172.59765625 22.33203125 C-149.01222647 11.36024568 -123.57658144 4.30771474 -98 0 C-97.04013184 -0.17499023 -96.08026367 -0.34998047 -95.09130859 -0.53027344 C-64.77190737 -5.93394297 -30.26485211 -5.49666876 0 0 Z " fill="#FECB00" transform="translate(351,3)"/>
<path d="M0 0 C43.19777018 -0.8951188 43.19777018 -0.8951188 59.05859375 11.625 C68.45719387 21.37516871 69.2870326 37.41138765 69.34375 50.109375 C69.3583728 51.35317932 69.37299561 52.59698364 69.38806152 53.878479 C69.43432045 57.83560178 69.46901229 61.79273661 69.5 65.75 C69.54145803 70.95330162 69.59526725 76.15626957 69.65625 81.359375 C69.66416565 83.1193985 69.66416565 83.1193985 69.67224121 84.91497803 C69.82071588 97.43522684 70.23563685 110.8699956 79.3125 120.4375 C87.73285244 125.33305374 96.31156351 126.12271673 105.875 126.5625 C108.88625 126.706875 111.8975 126.85125 115 127 C115 133.93 115 140.86 115 148 C112.091875 148.103125 109.18375 148.20625 106.1875 148.3125 C94.79237585 148.84810188 84.60882912 149.92910761 76.47802734 158.72973633 C66.68716184 170.7808902 69.39641079 191.39799837 69.37835693 205.80761719 C69.3705607 210.46380961 69.34191381 215.11976949 69.30337524 219.77580261 C69.28399298 222.24002698 69.2743829 224.70435568 69.27645874 227.1686554 C69.19490993 240.39602652 66.90676442 251.97074912 59.9375 263.375 C43.91774973 277.69052152 20.03417897 276.13445758 0 276 C0 269.07 0 262.14 0 255 C3.196875 254.9175 6.39375 254.835 9.6875 254.75 C23.82576465 254.27445306 23.82576465 254.27445306 36.234375 248.1640625 C38.14269905 245.82509896 38.89805717 244.08516588 39.6875 241.1875 C39.91824219 240.37667969 40.14898437 239.56585938 40.38671875 238.73046875 C42.10210698 231.09316703 42.16397527 223.67334662 42.2109375 215.8671875 C42.23901408 213.26041047 42.26767859 210.65363972 42.296875 208.046875 C42.33911443 203.96585429 42.37598027 199.88487288 42.40136719 195.80371094 C42.4266343 191.84549393 42.47505742 187.88769061 42.5234375 183.9296875 C42.52669037 182.72819061 42.52994324 181.52669373 42.53329468 180.28878784 C42.70034657 168.61536422 43.94373935 157.00405602 52 148 C56.99323777 143.30172142 62.66467538 140.49306756 69 138 C68.05898438 137.57589844 67.11796875 137.15179688 66.1484375 136.71484375 C54.77159184 131.43104952 49.79644851 126.82555766 44.98046875 114.96484375 C43.31672161 109.93383147 42.87487879 105.0960696 42.84228516 99.81787109 C42.83202301 98.61576996 42.82176086 97.41366882 42.81118774 96.17514038 C42.80388641 94.88757843 42.79658508 93.60001648 42.7890625 92.2734375 C42.77607401 90.92069708 42.76225524 89.56796441 42.74765015 88.21524048 C42.68647181 82.49854467 42.63222554 76.78187147 42.59863281 71.06494141 C42.57747334 67.55649019 42.5420048 64.04841429 42.49787521 60.54018021 C42.47715723 58.57971502 42.47170563 56.6191071 42.46670532 54.65853882 C42.33637026 45.05232969 41.10686702 35.79059309 37 27 C34.6859613 25.72412505 34.6859613 25.72412505 32 25 C30.7934375 24.4740625 30.7934375 24.4740625 29.5625 23.9375 C23.32023974 21.65374625 16.69491699 21.70934111 10.125 21.4375 C6.78375 21.293125 3.4425 21.14875 0 21 C0 14.07 0 7.14 0 0 Z " fill="#010100" transform="translate(329,164)"/>
<path d="M0 0 C40.92 0 81.84 0 124 0 C124 8.25 124 16.5 124 25 C83.08 25 42.16 25 0 25 C0 16.75 0 8.5 0 0 Z " fill="#000000" transform="translate(160,317)"/>
<path d="M0 0 C40.92 0 81.84 0 124 0 C124 8.25 124 16.5 124 25 C83.08 25 42.16 25 0 25 C0 16.75 0 8.5 0 0 Z " fill="#040300" transform="translate(160,257)"/>
</svg>
